<svg width="165" height="39" viewBox="0 0 165 39" fill="none" xmlns="http://www.w3.org/2000/svg">
<g clip-path="url(#clip0_1_387)">
<mask id="mask0_1_387" style="mask-type:luminance" maskUnits="userSpaceOnUse" x="0" y="0" width="39" height="39">
<mask id="mask1_1_387" style="mask-type:luminance" maskUnits="userSpaceOnUse" x="-1" y="0" width="40" height="39">
<path d="M38.9306 38.8867L38.9306 0.0546782L-0.010866 0.0546799L-0.0108643 38.8867L38.9306 38.8867Z" fill="white"/>
</mask>
<g mask="url(#mask1_1_387)">
<path d="M5.30532 10.8032C4.88793 11.475 4.00922 11.6795 3.33555 11.2706C2.66187 10.8543 2.45684 9.9781 2.8669 9.30632C4.60967 6.48044 7.05541 4.1365 9.9698 2.51546C12.7817 0.945526 16.0182 0.0546792 19.4525 0.054679C20.2434 0.054679 20.8877 0.697257 20.8877 1.48587C20.8877 2.27449 20.2434 2.91706 19.4525 2.91706C16.5089 2.91706 13.7482 3.67647 11.3611 5.00544C8.87873 6.38552 6.7918 8.38627 5.30532 10.7959L5.30532 10.8032ZM25.6767 4.11459C24.9445 3.82251 24.5856 2.99008 24.8785 2.25988C25.1714 1.52968 26.0062 1.17189 26.7385 1.46397C28.1298 2.02622 29.4478 2.74182 30.6487 3.58885C31.8643 4.44318 32.9773 5.43625 33.9732 6.54616C34.5004 7.13032 34.4491 8.03577 33.8633 8.56151C33.2775 9.08726 32.3695 9.03614 31.8423 8.45198C31.0002 7.51002 30.0483 6.66299 28.9938 5.92549C27.9613 5.20259 26.841 4.58922 25.6621 4.11459L25.6767 4.11459ZM36.0601 19.4707C36.0601 18.6821 36.7045 18.0395 37.4953 18.0395C38.2862 18.0395 38.9306 18.6821 38.9306 19.4707C38.9306 24.8304 36.7484 29.6862 33.2263 33.1985C29.7041 36.718 24.8346 38.8867 19.4598 38.8867C14.3633 38.8867 9.72083 36.9371 6.24993 33.7315C2.74974 30.5113 0.443134 26.0206 0.0477147 20.9968C-0.0108658 20.2082 0.582262 19.5218 1.3731 19.4634C2.16394 19.405 2.85226 19.9965 2.91084 20.7851C3.24768 25.064 5.21013 28.8903 8.19041 31.6358C11.1487 34.3595 15.1102 36.0316 19.4598 36.0316C24.0438 36.0316 28.1957 34.1769 31.1979 31.1831C34.2002 28.1893 36.0601 24.0491 36.0601 19.478" fill="white"/>
</g>
</mask>
<g mask="url(#mask0_1_387)">
<mask id="mask2_1_387" style="mask-type:luminance" maskUnits="userSpaceOnUse" x="0" y="0" width="39" height="39">
<path d="M0.0403883 0.0473824L0.04039 38.8867L38.9379 38.8867L38.9379 0.0473807L0.0403883 0.0473824Z" fill="white"/>
</mask>
<g mask="url(#mask2_1_387)">
<path d="M38.9891 38.9305L38.9891 -3.74236L-3.65018 -3.74236L-3.65018 38.9306L38.9891 38.9305Z" fill="url(#paint0_linear_1_387)"/>
</g>
</g>
<mask id="mask3_1_387" style="mask-type:luminance" maskUnits="userSpaceOnUse" x="5" y="5" width="29" height="29">
<mask id="mask4_1_387" style="mask-type:luminance" maskUnits="userSpaceOnUse" x="0" y="0" width="39" height="39">
<path d="M16.4807 38.5967L38.5745 22.4949L22.4317 0.344767L0.337845 16.4466L16.4807 38.5967Z" fill="white"/>
</mask>
<g mask="url(#mask4_1_387)">
<path d="M10.7247 25.8387C11.1904 26.4778 11.0507 27.3771 10.4134 27.8415C9.77603 28.306 8.8772 28.1637 8.41142 27.5246C6.1817 24.4651 5.39664 20.7968 5.93939 17.3386C6.47783 13.8746 8.33818 10.625 11.3832 8.40589C12.7522 7.40813 14.2595 6.69924 15.8116 6.27488C17.4237 5.83387 19.0877 5.69944 20.7217 5.85867C21.5059 5.93047 22.082 6.63417 22.0123 7.41885C21.9368 8.20784 21.2411 8.77825 20.4569 8.70645C19.1675 8.58607 17.8533 8.6921 16.58 9.04019C15.3609 9.37592 14.1698 9.93594 13.0781 10.7316C10.6645 12.4905 9.20294 15.0599 8.77296 17.7925C8.34729 20.531 8.96935 23.4302 10.729 25.8446L10.7247 25.8387ZM26.7152 11.4667C26.1282 10.934 26.0912 10.0277 26.6159 9.44595C27.1466 8.85989 28.052 8.82524 28.6346 9.35199C29.3546 10.0052 29.9689 10.6992 30.4993 11.4271C32.3927 14.025 33.2576 17.1458 33.0998 20.2147C32.9435 23.2734 31.7689 26.2859 29.5959 28.685C28.9763 29.3722 28.277 29.9996 27.5217 30.5501C26.4005 31.3672 25.1896 31.9869 23.9181 32.4243C22.6246 32.8686 21.2796 33.1059 19.9325 33.1544C19.1485 33.1821 18.4807 32.5633 18.4568 31.7743C18.4271 30.9896 19.0435 30.3229 19.8318 30.3011C20.8936 30.2703 21.9544 30.077 22.9881 29.7224C23.9718 29.3861 24.9282 28.8883 25.8311 28.2303C26.4566 27.7745 27.0095 27.2809 27.4838 26.754C29.2001 24.8689 30.1258 22.4818 30.2508 20.062C30.3757 17.6423 29.6913 15.1783 28.1904 13.1189C27.7548 12.5212 27.2602 11.9665 26.7152 11.4667Z" fill="white"/>
</g>
</mask>
<g mask="url(#mask3_1_387)">
<mask id="mask5_1_387" style="mask-type:luminance" maskUnits="userSpaceOnUse" x="0" y="0" width="39" height="39">
<path d="M22.4317 0.34477L0.331947 16.4509L16.4791 38.6069L38.5788 22.5008L22.4317 0.34477Z" fill="white"/>
</mask>
<g mask="url(#mask5_1_387)">
<path d="M16.4755 38.6639L40.7645 20.9623L23.0518 -3.34192L-1.23723 14.3597L16.4755 38.6639Z" fill="url(#paint1_linear_1_387)"/>
</g>
</g>
<mask id="mask6_1_387" style="mask-type:luminance" maskUnits="userSpaceOnUse" x="11" y="11" width="17" height="17">
<mask id="mask7_1_387" style="mask-type:luminance" maskUnits="userSpaceOnUse" x="11" y="11" width="17" height="17">
<path d="M11.5445 27.4084H27.3752V11.533H11.5445V27.4084Z" fill="white"/>
</mask>
<g mask="url(#mask7_1_387)">
<path d="M24.5128 19.4707C24.5128 18.6799 25.1554 18.0355 25.944 18.0355C26.7326 18.0355 27.3752 18.6799 27.3752 19.4707C27.3752 21.6602 26.4917 23.6446 25.0532 25.0871C23.622 26.5223 21.6431 27.4157 19.4525 27.4157C17.2619 27.4157 15.2904 26.5297 13.8519 25.0871C12.4207 23.6519 11.5299 21.6675 11.5299 19.4707C11.5299 17.2739 12.4134 15.2968 13.8519 13.8543C15.2831 12.4191 17.2619 11.5257 19.4525 11.5257C20.2412 11.5257 20.8837 12.1701 20.8837 12.9609C20.8837 13.7518 20.2412 14.3962 19.4525 14.3962C18.0579 14.3962 16.7946 14.96 15.8819 15.8826C14.9691 16.8053 14.3995 18.0648 14.3995 19.4634C14.3995 20.862 14.9618 22.1288 15.8819 23.0441C16.7946 23.9594 18.0579 24.5306 19.4525 24.5306C20.8472 24.5306 22.1105 23.9668 23.0232 23.0441C23.936 22.1288 24.5055 20.862 24.5055 19.4634" fill="white"/>
</g>
</mask>
<g mask="url(#mask6_1_387)">
<mask id="mask8_1_387" style="mask-type:luminance" maskUnits="userSpaceOnUse" x="11" y="11" width="17" height="17">
<path d="M27.3752 11.5257H11.5299V27.4157H27.3752V11.5257Z" fill="white"/>
</mask>
<g mask="url(#mask8_1_387)">
<path d="M11.486 27.4596H28.9232V9.9953H11.486V27.4596Z" fill="url(#paint2_linear_1_387)"/>
</g>
</g>
<mask id="mask9_1_387" style="mask-type:luminance" maskUnits="userSpaceOnUse" x="34" y="11" width="4" height="4">
<mask id="mask10_1_387" style="mask-type:luminance" maskUnits="userSpaceOnUse" x="34" y="11" width="4" height="4">
<path d="M37.6198 14.0964L37.6198 11.234L34.7494 11.234L34.7494 14.0964L37.6198 14.0964Z" fill="white"/>
</mask>
<g mask="url(#mask10_1_387)">
<path d="M34.7494 12.6652C34.7494 13.4539 35.3937 14.0964 36.1846 14.0964C36.9754 14.0964 37.6198 13.4539 37.6198 12.6652C37.6198 11.8766 36.9754 11.234 36.1846 11.234C35.3937 11.234 34.7494 11.8766 34.7494 12.6652Z" fill="white"/>
</g>
</mask>
<g mask="url(#mask9_1_387)">
<mask id="mask11_1_387" style="mask-type:luminance" maskUnits="userSpaceOnUse" x="34" y="11" width="4" height="4">
<path d="M34.742 11.2194L34.742 14.1037L37.6198 14.1037L37.6198 11.2194L34.742 11.2194Z" fill="white"/>
</mask>
<g mask="url(#mask11_1_387)">
<path d="M37.6711 14.1476L37.6711 10.8178L34.4418 10.8178L34.4418 14.1476L37.6711 14.1476Z" fill="url(#paint3_linear_1_387)"/>
</g>
</g>
<mask id="mask12_1_387" style="mask-type:luminance" maskUnits="userSpaceOnUse" x="12" y="29" width="4" height="3">
<mask id="mask13_1_387" style="mask-type:luminance" maskUnits="userSpaceOnUse" x="12" y="28" width="5" height="5">
<path d="M13.722 32.4434L16.0411 30.7532L14.3505 28.4334L12.0313 30.1236L13.722 32.4434Z" fill="white"/>
</mask>
<g mask="url(#mask13_1_387)">
<path d="M13.188 29.2807C12.5506 29.7452 12.4109 30.6444 12.8767 31.2835C13.3424 31.9226 14.2413 32.0649 14.8786 31.6004C15.5159 31.136 15.6557 30.2367 15.1899 29.5976C14.7241 28.9585 13.8253 28.8162 13.188 29.2807Z" fill="white"/>
</g>
</mask>
<g mask="url(#mask12_1_387)">
<mask id="mask14_1_387" style="mask-type:luminance" maskUnits="userSpaceOnUse" x="12" y="28" width="5" height="5">
<path d="M14.3419 28.4216L12.0227 30.1118L13.7177 32.4375L16.0368 30.7473L14.3419 28.4216Z" fill="white"/>
</mask>
<g mask="url(#mask14_1_387)">
<path d="M13.7168 32.5106L16.3369 30.6011L14.422 27.9736L11.8019 29.8831L13.7168 32.5106Z" fill="url(#paint4_linear_1_387)"/>
</g>
</g>
<mask id="mask15_1_387" style="mask-type:luminance" maskUnits="userSpaceOnUse" x="0" y="13" width="4" height="4">
<mask id="mask16_1_387" style="mask-type:luminance" maskUnits="userSpaceOnUse" x="0" y="13" width="4" height="4">
<path d="M3.49664 16.5499L3.49664 13.6875L0.618866 13.6875L0.618866 16.5499L3.49664 16.5499Z" fill="white"/>
</mask>
<g mask="url(#mask16_1_387)">
<path d="M0.618866 15.1187C0.618866 15.9073 1.26325 16.5499 2.05409 16.5499C2.84493 16.5499 3.48931 15.9073 3.48931 15.1187C3.48931 14.3301 2.84493 13.6875 2.05409 13.6875C1.26325 13.6875 0.618866 14.3301 0.618866 15.1187Z" fill="white"/>
</g>
</mask>
<g mask="url(#mask15_1_387)">
<mask id="mask17_1_387" style="mask-type:luminance" maskUnits="userSpaceOnUse" x="0" y="13" width="4" height="4">
<path d="M0.611542 13.6875L0.611542 16.5572L3.50396 16.5572L3.50396 13.6875L0.611542 13.6875Z" fill="white"/>
</mask>
<g mask="url(#mask17_1_387)">
<path d="M3.56254 16.6083L3.56254 13.2786L0.311318 13.2786L0.311318 16.6083L3.56254 16.6083Z" fill="url(#paint5_linear_1_387)"/>
</g>
</g>
<mask id="mask18_1_387" style="mask-type:luminance" maskUnits="userSpaceOnUse" x="17" y="13" width="9" height="9">
<mask id="mask19_1_387" style="mask-type:luminance" maskUnits="userSpaceOnUse" x="17" y="13" width="9" height="9">
<path d="M17.4591 21.4991H25.4694V13.4955H17.4591V21.4991Z" fill="white"/>
</mask>
<g mask="url(#mask19_1_387)">
<path d="M19.4598 17.4936C18.3572 17.4936 17.4591 18.3943 17.4591 19.5C17.4591 20.6057 18.3572 21.5064 19.4598 21.5064C20.5624 21.5064 21.4606 20.6057 21.4606 19.5C21.4606 19.4121 21.4606 19.3316 21.446 19.2437C21.2999 18.1014 22.921 16.3806 24.0601 16.3659C24.8414 16.3586 25.4767 15.7142 25.4767 14.9307C25.4767 14.1472 24.8341 13.4955 24.0455 13.4955C23.2569 13.4955 22.6508 14.1033 22.6143 14.8648C22.5705 15.8241 21.1393 17.3106 20.0294 17.4936C19.9126 17.5156 19.7957 17.5156 19.6862 17.5083C19.6132 17.5009 19.5402 17.4936 19.4598 17.4936Z" fill="white"/>
</g>
</mask>
<g mask="url(#mask18_1_387)">
<mask id="mask20_1_387" style="mask-type:luminance" maskUnits="userSpaceOnUse" x="17" y="13" width="9" height="9">
<path d="M25.4767 13.4955H17.4591V21.5064H25.4767V13.4955Z" fill="white"/>
</mask>
<g mask="url(#mask20_1_387)">
<path d="M17.4007 21.5576H26.3383V12.7047H17.4007V21.5576Z" fill="url(#paint6_linear_1_387)"/>
</g>
</g>
</g>
<path d="M46.983 23.9596C46.983 20.0733 52.0351 20.0276 54.0697 20.0276H54.8241V19.8676C54.8241 17.1472 53.8868 16.187 51.5094 16.187C50.915 16.187 48.9719 16.3471 48.9719 17.3072V18.0844H48.0117V17.0329C48.0117 15.6841 50.5949 15.2955 51.5322 15.2955C55.0299 15.2955 55.7843 17.1929 55.7843 19.6161V25.6284C55.7843 25.9713 55.9671 26.1313 56.2872 26.1313H57.2702V27H56.15C55.2127 27 54.8241 26.6342 54.8241 25.6055C54.8241 24.9883 54.8698 24.5768 54.8698 24.5768H54.8241C54.847 24.5768 53.8411 27.2743 50.8693 27.2743C49.0176 27.2743 46.983 26.2456 46.983 23.9596ZM47.9889 23.891C47.9889 25.1026 48.9719 26.3828 50.915 26.3828C53.4068 26.3828 54.8241 23.7995 54.8241 21.5364V20.9191H54.0926C52.1494 20.9191 47.9889 20.9191 47.9889 23.891ZM58.8166 21.102C58.8166 17.5358 60.7598 15.2955 63.7316 15.2955C66.9778 15.2955 67.6636 17.4215 67.6636 17.4215H67.7093C67.7093 17.4215 67.6865 17.17 67.6865 16.8957C67.6865 15.9584 68.0751 15.5698 69.0124 15.5698H70.1325V16.4385H69.1495C68.8295 16.4385 68.6466 16.5985 68.6466 16.9414V26.9314C68.6466 30.4291 66.132 31.8007 63.4116 31.8007C62.1543 31.8007 60.9427 31.4806 59.8225 30.9091L60.2797 30.0633C60.2797 30.0633 61.6971 30.8634 63.343 30.8634C65.7891 30.8634 67.6865 29.6975 67.6865 26.9314V25.7198C67.6865 25.194 67.7322 24.7825 67.7322 24.7825H67.6865C67.0007 26.177 65.7891 27 63.8917 27C60.9198 27 58.8166 24.6682 58.8166 21.102ZM63.9602 26.0627C65.972 26.0627 67.7093 24.8054 67.7093 21.102C67.7093 17.4215 65.972 16.2328 63.7316 16.2328C61.2856 16.2328 59.8225 18.0159 59.8225 21.102C59.8225 24.1882 61.5142 26.0627 63.9602 26.0627ZM71.6969 21.3078C71.6969 17.4444 74.3258 15.2955 77.252 15.2955C80.361 15.2955 81.9155 17.7415 81.9155 20.5076C81.9155 20.7591 81.8698 21.1249 81.8698 21.1249H72.7027C72.7027 24.4396 74.9431 26.337 77.5949 26.337C79.7895 26.337 81.1382 24.8968 81.1382 24.8968L81.664 25.697C81.664 25.697 80.0638 27.2743 77.5949 27.2743C74.3715 27.2743 71.6969 24.9426 71.6969 21.3078ZM72.7713 20.2333H80.9096C80.7953 17.4444 79.1265 16.187 77.2291 16.187C75.1259 16.187 73.1828 17.5587 72.7713 20.2333ZM74.783 13.5352L76.6119 10.9977H77.8006L79.6294 13.5352H78.5093L77.2291 11.7064H77.1834L75.9032 13.5352H74.783ZM85.1604 27V16.9414C85.1604 16.5985 84.9775 16.4385 84.6575 16.4385H83.6745V15.5698H84.7946C85.7319 15.5698 86.1205 15.9584 86.1205 16.8271V17.4672C86.1205 17.993 86.0748 18.4045 86.0748 18.4045H86.1205C86.5092 17.3301 88.0637 15.2955 90.9212 15.2955C93.8931 15.2955 94.6932 17.0557 94.6932 19.7533V25.6284C94.6932 25.9713 94.8761 26.1313 95.1961 26.1313H96.1791V27H95.059C94.1217 27 93.733 26.6114 93.733 25.6741V20.0962C93.733 18.1073 93.4816 16.2328 90.9212 16.2328C88.7723 16.2328 86.8749 17.7415 86.3034 19.8676C86.1663 20.3476 86.1205 20.8734 86.1205 21.4221V27H85.1604ZM97.6827 21.3078C97.6827 17.673 100.403 15.2955 103.581 15.2955C104.815 15.2955 107.604 15.8213 107.604 17.673V18.5417H106.644V17.8787C106.644 16.7585 104.678 16.2328 103.581 16.2328C100.906 16.2328 98.6886 18.2216 98.6886 21.3078C98.6886 24.3482 100.906 26.337 103.581 26.337C106.095 26.337 107.398 24.6911 107.398 24.6911L107.901 25.4912C107.901 25.4912 106.415 27.2743 103.581 27.2743C100.357 27.2743 97.6827 24.9426 97.6827 21.3078ZM110.7 12.6665V10.9977H111.751V12.6665H110.7ZM110.837 25.6741V16.9414C110.837 16.5985 110.654 16.4385 110.334 16.4385H109.351V15.5698H110.471C111.408 15.5698 111.797 15.9584 111.797 16.8957V25.6284C111.797 25.9713 111.98 26.1313 112.3 26.1313H113.283V27H112.163C111.226 27 110.837 26.6114 110.837 25.6741ZM114.917 23.9596C114.917 20.0733 119.969 20.0276 122.004 20.0276H122.758V19.8676C122.758 17.1472 121.821 16.187 119.443 16.187C118.849 16.187 116.906 16.3471 116.906 17.3072V18.0844H115.945V17.0329C115.945 15.6841 118.529 15.2955 119.466 15.2955C122.964 15.2955 123.718 17.1929 123.718 19.6161V25.6284C123.718 25.9713 123.901 26.1313 124.221 26.1313H125.204V27H124.084C123.147 27 122.758 26.6342 122.758 25.6055C122.758 24.9883 122.804 24.5768 122.804 24.5768H122.758C122.781 24.5768 121.775 27.2743 118.803 27.2743C116.951 27.2743 114.917 26.2456 114.917 23.9596ZM115.923 23.891C115.923 25.1026 116.906 26.3828 118.849 26.3828C121.341 26.3828 122.758 23.7995 122.758 21.5364V20.9191H122.026C120.083 20.9191 115.923 20.9191 115.923 23.891ZM127.505 27V19.0446C127.505 18.7245 127.322 18.5417 127.002 18.5417H126.133V15.2269H129.631C130.705 15.2269 131.3 15.6612 131.3 16.7357V17.3529C131.3 17.7187 131.254 17.9473 131.254 17.9473H131.3C131.803 16.3471 133.289 15.0211 135.049 15.0211C135.277 15.0211 135.506 15.0669 135.506 15.0669V18.9531C135.506 18.9531 135.186 18.8846 134.706 18.8846C133.769 18.8846 132.237 19.1817 131.665 20.942C131.528 21.3763 131.46 21.9021 131.46 22.5422V27H127.505ZM137.93 31.5721V19.0446C137.93 18.7245 137.748 18.5417 137.427 18.5417H136.559V15.2269H139.965C141.108 15.2269 141.497 15.7527 141.497 16.2556C141.497 16.3928 141.497 16.4614 141.497 16.4614H141.542C141.542 16.4614 142.571 14.9526 145.063 14.9526C148.263 14.9526 150.366 17.4672 150.366 21.1249C150.366 24.8511 148.012 27.2743 144.88 27.2743C142.96 27.2743 141.885 26.2685 141.885 26.2685H141.84C141.84 26.2685 141.885 26.68 141.885 27.2743V31.5721H137.93ZM141.771 21.1935C141.771 22.6108 142.525 24.0053 144.08 24.0053C145.314 24.0053 146.389 22.9994 146.389 21.1935C146.389 19.4332 145.451 18.2902 144.08 18.2902C142.891 18.2902 141.771 19.1589 141.771 21.1935ZM152.506 27V14.4725C152.506 14.1525 152.323 13.9696 152.003 13.9696H151.135V10.6548H154.792C155.958 10.6548 156.461 10.8148 156.461 11.9807V19.1132H157.078C157.421 19.1132 157.81 19.1132 158.016 18.7474L159.936 15.2269H164.234L161.559 19.7533C161.125 20.5076 160.69 20.7363 160.69 20.7363V20.782C160.69 20.782 161.17 20.9649 161.582 21.765L162.336 23.2966C162.496 23.6167 162.748 23.6852 163.205 23.6852H164.119V27H161.125C160.279 27 159.822 26.8628 159.433 26.1084L157.741 22.8165C157.536 22.4279 157.101 22.4279 156.804 22.4279H156.461V27H152.506Z" fill="url(#paint7_linear_1_387)"/>
<defs>
<linearGradient id="paint0_linear_1_387" x1="38.9891" y1="17.5941" x2="-3.65018" y2="17.5941" gradientUnits="userSpaceOnUse">
<stop stop-color="#F9A25D"/>
<stop offset="1" stop-color="#F07454"/>
</linearGradient>
<linearGradient id="paint1_linear_1_387" x1="28.62" y1="29.8131" x2="10.9073" y2="5.50891" gradientUnits="userSpaceOnUse">
<stop stop-color="#F9A25D"/>
<stop offset="1" stop-color="#F07454"/>
</linearGradient>
<linearGradient id="paint2_linear_1_387" x1="20.2046" y1="27.4596" x2="20.2046" y2="9.9953" gradientUnits="userSpaceOnUse">
<stop stop-color="#F9A25D"/>
<stop offset="1" stop-color="#F07454"/>
</linearGradient>
<linearGradient id="paint3_linear_1_387" x1="37.6711" y1="12.4827" x2="34.4418" y2="12.4827" gradientUnits="userSpaceOnUse">
<stop stop-color="#F9A25D"/>
<stop offset="1" stop-color="#F07454"/>
</linearGradient>
<linearGradient id="paint4_linear_1_387" x1="15.0268" y1="31.5559" x2="13.1119" y2="28.9284" gradientUnits="userSpaceOnUse">
<stop stop-color="#F9A25D"/>
<stop offset="1" stop-color="#F07454"/>
</linearGradient>
<linearGradient id="paint5_linear_1_387" x1="3.56254" y1="14.9435" x2="0.311318" y2="14.9435" gradientUnits="userSpaceOnUse">
<stop stop-color="#F9A25D"/>
<stop offset="1" stop-color="#F07454"/>
</linearGradient>
<linearGradient id="paint6_linear_1_387" x1="21.8695" y1="21.5576" x2="21.8695" y2="12.7047" gradientUnits="userSpaceOnUse">
<stop stop-color="#F9A25D"/>
<stop offset="1" stop-color="#F07454"/>
</linearGradient>
<linearGradient id="paint7_linear_1_387" x1="105.5" y1="6" x2="105.5" y2="33" gradientUnits="userSpaceOnUse">
<stop stop-color="#F9A25D"/>
<stop offset="1" stop-color="#F07454"/>
</linearGradient>
<clipPath id="clip0_1_387">
<rect width="39" height="39" fill="white"/>
</clipPath>
</defs>
</svg>
